<?xml version="1.0" encoding="UTF-8"?>
<!DOCTYPE svg PUBLIC "-//W3C//DTD SVG 1.1//EN" "http://www.w3.org/Graphics/SVG/1.1/DTD/svg11.dtd">
<svg xmlns="http://www.w3.org/2000/svg" version="1.1" width="50px" height="50px" style="shape-rendering:geometricPrecision; text-rendering:geometricPrecision; image-rendering:optimizeQuality; fill-rule:evenodd; clip-rule:evenodd" xmlns:xlink="http://www.w3.org/1999/xlink">
<g><path style="opacity:0.66" fill="#000000" d="M 49.5,11.5 C 49.5,12.1667 49.5,12.8333 49.5,13.5C 45.993,13.6933 42.6596,13.0267 39.5,11.5C 38.3861,12.723 38.2195,14.0563 39,15.5C 42.6114,14.2381 46.1114,14.5715 49.5,16.5C 49.5,17.1667 49.5,17.8333 49.5,18.5C 45.993,18.6933 42.6596,18.0267 39.5,16.5C 38.3861,17.723 38.2195,19.0563 39,20.5C 42.6114,19.2381 46.1114,19.5715 49.5,21.5C 49.5,22.1667 49.5,22.8333 49.5,23.5C 45.993,23.6933 42.6596,23.0267 39.5,21.5C 38.6143,22.325 38.281,23.325 38.5,24.5C 32.1712,25.6236 26.0045,27.2903 20,29.5C 16.6295,35.1777 15.7961,41.1777 17.5,47.5C 13.8183,47.6653 10.1516,47.4986 6.5,47C 5.58377,46.6258 4.75044,46.1258 4,45.5C 3.76012,39.486 3.76012,33.486 4,27.5C 2.63658,25.3162 1.13658,23.3162 -0.5,21.5C -0.5,17.5 -0.5,13.5 -0.5,9.5C 1.26589,7.2294 3.26589,5.06274 5.5,3C 8.2413,2.02288 11.0746,1.52288 14,1.5C 22.2509,2.77121 30.4175,4.43787 38.5,6.5C 37.74,10.6 39.0734,11.6 42.5,9.5C 44.9778,9.77173 47.3111,10.4384 49.5,11.5 Z M 9.5,4.5 C 18.3979,4.89036 27.0646,6.55702 35.5,9.5C 36.8333,13.5 36.8333,17.5 35.5,21.5C 29.8823,23.1545 24.2156,24.6545 18.5,26C 9.27096,28.2284 3.93763,24.7284 2.5,15.5C 2.82193,10.5191 5.15526,6.85241 9.5,4.5 Z M 10.5,11.5 C 17.1584,10.3445 19.1584,12.8445 16.5,19C 9.74962,20.4689 7.74962,17.9689 10.5,11.5 Z M 7.5,29.5 C 10.5184,29.3354 13.5184,29.502 16.5,30C 13.771,34.4357 13.1043,39.1024 14.5,44C 12.1009,44.711 9.76761,44.5443 7.5,43.5C 6.65861,38.8658 6.65861,34.1991 7.5,29.5 Z"/></g>
<g><path style="opacity:0.667" fill="#000000" d="M 9.5,8.5 C 20.8179,7.98999 23.4846,12.49 17.5,22C 6.10548,22.8027 3.43882,18.3027 9.5,8.5 Z M 10.5,11.5 C 7.74962,17.9689 9.74962,20.4689 16.5,19C 19.1584,12.8445 17.1584,10.3445 10.5,11.5 Z"/></g>
</svg>
