<?xml version="1.0" standalone="no"?>
<!DOCTYPE svg PUBLIC "-//W3C//DTD SVG 20010904//EN"
 "http://www.w3.org/TR/2001/REC-SVG-20010904/DTD/svg10.dtd">
<svg version="1.0" xmlns="http://www.w3.org/2000/svg"
 width="172.000000pt" height="107.000000pt" viewBox="0 0 172.000000 107.000000"
 preserveAspectRatio="xMidYMid meet">

<g transform="translate(0.000000,107.000000) scale(0.100000,-0.100000)"
fill="#000000" stroke="none">
<path d="M229 867 c-144 -76 -103 -292 60 -314 26 -4 53 1 86 16 31 14 68 21
106 21 52 0 59 -2 59 -20 0 -17 7 -20 50 -20 l50 0 0 170 0 170 -50 0 c-43 0
-50 -3 -50 -20 0 -18 -7 -20 -63 -20 -43 0 -75 6 -102 20 -51 26 -92 25 -146
-3z m121 -119 c13 -25 13 -31 0 -55 -21 -37 -62 -42 -84 -11 -9 12 -16 29 -16
38 0 9 7 26 16 38 22 31 63 26 84 -10z m190 -28 c0 -16 -7 -20 -35 -20 -28 0
-35 4 -35 20 0 16 7 20 35 20 28 0 35 -4 35 -20z"/>
<path d="M700 835 l0 -54 63 -3 62 -3 3 -112 3 -113 33 0 c60 0 66 17 66 188
l0 152 -115 0 -115 0 0 -55z"/>
<path d="M1020 720 l0 -170 50 0 50 0 0 170 0 170 -50 0 -50 0 0 -170z"/>
<path d="M1197 872 c-14 -15 -17 -41 -17 -135 l0 -117 175 0 175 0 0 55 0 54
-122 3 -123 3 -3 78 -3 77 -33 0 c-19 0 -40 -8 -49 -18z"/>
<path d="M1180 505 l0 -55 180 0 180 0 0 55 0 55 -180 0 -180 0 0 -55z"/>
<path d="M1190 401 c-5 -11 -10 -72 -10 -135 l0 -116 175 0 175 0 0 55 0 54
-122 3 -123 3 -3 78 -3 77 -39 0 c-29 0 -42 -5 -50 -19z"/>
</g>
</svg>
